<svg width="84" height="20" viewBox="0 0 84 20" fill="none" xmlns="http://www.w3.org/2000/svg">
<path d="M7.06 19.26C10.882 19.26 13.716 16.686 13.716 12.604V0.0199995H10.908V12.786C10.908 14.892 9.218 16.608 7.034 16.608C4.876 16.608 3.238 14.892 3.238 12.786V0.0199995H0.404V12.604C0.404 16.686 3.212 19.26 7.06 19.26ZM16.761 19H19.595V0.0199995H16.761V19ZM22.5162 19H25.2982V15.438H22.5162V19ZM33.9322 19.26C35.6482 19.26 37.2862 18.48 38.2742 17.206V19H41.0302V0.0199995H38.2742V7.69C37.3122 6.494 35.6742 5.74 33.9582 5.74C30.5522 5.74 27.4582 8.34 27.4582 12.5C27.4582 16.634 30.6302 19.26 33.9322 19.26ZM34.3222 16.712C32.0082 16.712 30.2142 14.84 30.2142 12.474C30.2142 10.108 32.0082 8.262 34.3222 8.262C36.6882 8.262 38.4302 10.16 38.4302 12.474C38.4302 14.814 36.6882 16.712 34.3222 16.712ZM50.1152 19.26C53.0012 19.26 55.0552 17.856 56.1992 15.724L53.9112 14.45C53.2352 15.854 51.8832 16.79 50.1152 16.79C47.8532 16.79 46.2932 15.464 45.9292 13.462H56.6932V12.37C56.6932 8.522 53.8592 5.74 50.0112 5.74C46.1892 5.74 43.2512 8.73 43.2512 12.552C43.2512 16.322 46.0072 19.26 50.1152 19.26ZM50.0112 8.184C52.0132 8.184 53.4432 9.224 53.8592 11.096H46.0592C46.5792 9.38 48.0872 8.184 50.0112 8.184ZM63.7116 19.26C67.4036 19.286 68.9636 16.868 68.9636 15.074C68.9636 12.37 66.5456 11.668 64.4136 11.2C62.5416 10.784 61.3456 10.524 61.3456 9.588C61.3456 8.756 62.0996 8.028 63.5816 8.028C64.8816 8.028 65.8956 8.6 66.4936 9.51L68.8076 8.236C67.7936 6.676 65.9996 5.714 63.5816 5.714C60.5136 5.688 58.5636 7.586 58.5636 9.64C58.5636 12.318 60.8516 13.046 63.0616 13.514C64.6996 13.852 66.2076 14.086 66.2076 15.126C66.2076 16.036 65.4016 16.842 63.8416 16.842C62.3596 16.842 61.2156 16.14 60.5136 14.944L58.0176 16.244C59.1096 18.168 61.0076 19.26 63.7116 19.26ZM80.1618 19H83.2818L78.0818 11.564L83.1518 6H79.7978L73.9478 12.448V0.0199995H71.1918V19H73.9478V15.62L76.1318 13.228L80.1618 19Z" fill="#2C3847"/>
</svg>
